# xmcd
#
# Track frame offsets:
# 150
# 13670
# 32057
# 45507
# 63257
# 81127
# 95937
# 110795
# 127152
# 147067
# 165627
# 182655
# 199807
# 216312
#
# Disc length: 3137 seconds
#
#
# Revision: 1
# Processed by: cddbd v1.5.1PL0 Copyright (c) Steve Scherf et al.
# Submitted via: FreeRIP 2.40 
#
DISCID=cc0c3f0e
DTITLE=Chitãozinho and Xororó - Entre Amigos - Nascemos para Cantar - Entre Amigos
DYEAR=2005
DGENRE=Sertanejo
TTITLE0=Pombinha Branca (Vola colomba)
TTITLE1=Colcha de Retalhos
TTITLE2=Saudade de Minha Terra
TTITLE3=Chitãozinho and Xororó
TTITLE4=Tristeza do Jeca
TTITLE5=Cante a Canção (Sing)
TTITLE6=Palavras (Words)
TTITLE7=Luar do Sertão
TTITLE8=Cabocla Tereza
TTITLE9=Coração Vazio (We're All Alone)
TTITLE10=Asa Branca
TTITLE11=Ela Não Vai Mais Chorar (She's Not Crying Anymore)
TTITLE12=Vou Toma um Pingão
TTITLE13=Majestade, o Sabiá
EXTD=by Tosh2005
EXTT0=
EXTT1=
EXTT2=
EXTT3=
EXTT4=
EXTT5=
EXTT6=
EXTT7=
EXTT8=
EXTT9=
EXTT10=
EXTT11=
EXTT12=
EXTT13=
PLAYORDER=
